<svg xmlns="http://www.w3.org/2000/svg"
	viewBox="0 0 512 512"
	fill="#474a56" stroke="none" >

	<path d="
		M0,64
		a64,64 0 0 1 64,-64
		h320
		a64,64 0 0 1 64,64
		v320
		a64,64 0 0 1 -64,64
		h-320
		a64,64 0 0 1 -64,-64
		Z

		M110,110
		v-40 a16,12 0 0 1 32,0 v40
		h40 a12,16 0 0 1 0,32 h-40
		v40 a16,12 0 0 1 -32,0 v-40
		h-40 a12,16 0 0 1 0,-32 h40
		Z

		M286,110
		h100 a12,16 0 0 1 0,32
		h-100 a12,16 0 0 1 0,-32
		Z

		M286,278
		h92 a12,16 0 0 1 0,32
		h-92 a12,16 0 0 1 0,-32
		Z
		M286,342
		h92 a12,16 0 0 1 0,32
		h-92 a12,16 0 0 1 0,-32
		Z

		M126,299.37
		l28.28,-28.28 a16,12 45 0 1 22.63,22.63 l-28.28,28.28
		l28.28,28.28 a12,16 45 0 1 -22.63,22.63 l-28.28,-28.28
		l-28.28,28.28 a16,12 45 0 1 -22.63,-22.63 l28.28,-28.28
		l-28.28,-28.28 a12,16 45 0 1 22.63,-22.63
		Z
	"
		  stroke="none"
		  transform="translate(32,32)"
		  fill-rule="evenodd"
	/>

</svg>